<?xml version="1.0" encoding="UTF-8" standalone="no"?>
<svg width="49px" height="29px" viewBox="0 0 49 29" version="1.1" xmlns="http://www.w3.org/2000/svg" xmlns:xlink="http://www.w3.org/1999/xlink">
    <!-- Generator: Sketch 3.6.1 (26313) - http://www.bohemiancoding.com/sketch -->
    <title>logo</title>
    <desc>Created with Sketch.</desc>
    <defs>
        <path id="path-1" d="M0.062838035,24.8764321 L25.997428,24.8764321 L25.997428,12.4416358 L25.997428,0.00683940397 L0.062838035,0.00683940397 L0.062838035,24.8764321 L0.062838035,24.8764321 Z"></path>
    </defs>
    <g id="Page-1" stroke="none" stroke-width="1" fill="none" fill-rule="evenodd">
        <g id="3-1-Employee-Dashboard" transform="translate(-65.000000, -16.000000)">
            <g id="header">
                <g id="elements" transform="translate(28.000000, 11.000000)">
                    <g id="logo" transform="translate(37.000000, 5.000000)">
                        <path d="M30.179204,16.087608 L30.179204,9.66578767 L26.5201262,16.087608 L30.179204,16.087608" id="Fill-1" fill="#D9222A"></path>
                        <path d="M15.3509511,12.0791474 L13.1879898,15.973618 L15.9515304,15.973618 L15.6822789,16.8047955 C14.9902989,18.8374284 12.8042969,20.3930128 11.0633025,20.3930128 C7.79591513,20.3930128 5.45662646,17.8818117 5.45662646,14.5308837 C5.45662646,11.4187649 7.40479596,8.78578435 10.9452432,8.78578435 C11.0768222,8.78578435 11.2047833,8.79072392 11.3310306,8.79547351 L11.3310306,8.77647517 L16.7316741,8.77647517 L13.9685143,3.80156871 C12.7646899,3.80099876 12.0390058,3.76205215 10.674278,3.76205215 C4.70752091,3.76205215 0,8.72631954 0,14.5893986 C0,20.4530476 4.70752091,25.4194048 10.674278,25.4194048 C16.2615314,25.4194048 20.1279747,21.424053 21.1604227,16.7497003 L18.5661639,12.0791474 L15.3509511,12.0791474" id="Fill-2" fill="#1A1918"></path>
                        <g id="Group-6" transform="translate(22.850195, 3.799669)">
                            <mask id="mask-2" fill="white">
                                <use xlink:href="#path-1"></use>
                            </mask>
                            <g id="Clip-4"></g>
                            <path d="M19.8301605,6.28313245 C19.8301605,5.38470075 20.368473,5.06837831 21.0288436,5.06837831 L24.8501578,5.06837831 L22.0115924,0.00683940397 L20.281071,0.00683940397 C17.0100657,0.00683940397 14.004313,2.44394702 14.004313,5.93204305 C14.004313,9.45642591 19.8010265,12.5675948 19.8010265,14.5358233 C19.8010265,15.8755865 18.9595681,16.3558647 17.7614562,16.3558647 L13.9997429,16.3558647 L13.9999334,16.3575745 L14.2154869,16.3575745 L16.5821958,20.5904056 L17.0978485,21.5192347 L19.831303,21.5192347 C22.9532108,21.5192347 25.997428,18.6833518 25.997428,15.2816983 C25.997428,10.373286 19.8301605,8.04693874 19.8301605,6.28313245" id="Fill-3" fill="#1A1918" mask="url(#mask-2)"></path>
                            <path d="M14.2154869,16.3575745 L11.9458913,16.3575745 L11.9458913,21.2612372 L7.32900948,21.2612372 L7.32900948,16.3575745 L0.062838035,16.3575745 L2.91682733,21.45806 C2.91682733,21.45806 4.76369431,24.8878311 9.84919553,24.8878311 C16.7800404,24.8878311 18.9475717,24.8530642 18.9475717,24.8530642 L16.5821958,20.5904056 L14.2154869,16.3575745" id="Fill-5" fill="#D9222A" mask="url(#mask-2)"></path>
                        </g>
                        <path d="M27.267518,6.34639694 C28.5560786,3.99782161 27.1612646,2.06587997 27.1612646,2.06587997 C27.1612646,2.06587997 25.9250691,0.0121589404 22.0875693,0.0121589404 L11.8636306,0.0121589404 L21.1604227,16.7497003 L21.185177,16.7945364 C21.185177,16.7945364 25.9776245,8.69592219 27.267518,6.34639694" id="Fill-7" fill="#D9222A"></path>
                    </g>
                </g>
            </g>
        </g>
    </g>
</svg>