<?xml version="1.0" encoding="UTF-8" standalone="no"?>
<svg width="110px" height="65px" viewBox="0 0 110 65" version="1.1" xmlns="http://www.w3.org/2000/svg" xmlns:xlink="http://www.w3.org/1999/xlink">
    <!-- Generator: Sketch 3.7.2 (28276) - http://www.bohemiancoding.com/sketch -->
    <title>logo</title>
    <desc>Created with Sketch.</desc>
    <defs>
        <polygon id="path-1" points="58.3615731 55.7575203 58.3615731 27.886425 58.3615731 0.0153296986 0.141064977 0.0153296986 0.141064977 55.7575203"></polygon>
    </defs>
    <g id="Patterns" stroke="none" stroke-width="1" fill="none" fill-rule="evenodd">
        <g id="login-vertical" transform="translate(-125.000000, -160.000000)">
            <g id="vertical" transform="translate(81.000000, 160.000000)">
                <g id="logo" transform="translate(44.000000, 0.000000)">
                    <polyline id="Fill-1" fill="#D9222A" points="67.7492336 36.0584318 67.7492336 21.6646965 59.5349772 36.0584318 67.7492336 36.0584318"></polyline>
                    <path d="M34.4613188,27.073951 L29.6056914,35.8029368 L35.809558,35.8029368 L35.205116,37.665921 C33.6516914,42.2218223 28.7443401,45.708477 24.8359853,45.708477 C17.501034,45.708477 12.2495696,40.0799227 12.2495696,32.5692221 C12.2495696,25.5937834 16.6230113,19.6922753 24.5709541,19.6922753 C24.8663356,19.6922753 25.1535952,19.7033467 25.4370076,19.7139923 L25.4370076,19.6714099 L37.5609011,19.6714099 L31.3578894,8.52075745 C28.6554264,8.51947998 27.0263396,8.43218586 23.9626648,8.43218586 C10.5679041,8.43218586 0,19.5589921 0,32.7003762 C0,45.8430377 10.5679041,56.974528 23.9626648,56.974528 C36.5054786,56.974528 45.1852493,48.0194291 47.5029897,37.5424318 L41.6791435,27.073951 L34.4613188,27.073951" id="Fill-2" fill="#FFFFFF"></path>
                    <g id="Group-6" transform="translate(51.296355, 8.516499)">
                        <mask id="mask-2" fill="white">
                            <use xlink:href="#path-1"></use>
                        </mask>
                        <g id="Clip-4"></g>
                        <path d="M44.5166868,14.0828831 C44.5166868,12.0691568 45.7251435,11.3601583 47.2076081,11.3601583 L55.7860686,11.3601583 L49.4137789,0.0153296986 L45.5289349,0.0153296986 C38.1858617,0.0153296986 31.4382536,5.47781229 31.4382536,13.2959586 C31.4382536,21.1954374 44.451284,28.1687469 44.451284,32.5802935 C44.451284,35.5832111 42.5622957,36.6596966 39.8726568,36.6596966 L31.4279944,36.6596966 L31.4284218,36.6635291 L31.9123175,36.6635291 L37.2253374,46.1509092 L38.3829252,48.2327674 L44.5192517,48.2327674 C51.5276162,48.2327674 58.3615731,41.8764782 58.3615731,34.2520823 C58.3615731,23.2504686 44.5166868,18.036242 44.5166868,14.0828831" id="Fill-3" fill="#FFFFFF" mask="url(#mask-2)"></path>
                        <path d="M31.9123175,36.6635291 L26.817307,36.6635291 L26.817307,47.6544971 L16.4528784,47.6544971 L16.4528784,36.6635291 L0.141064977,36.6635291 L6.54797973,48.0956518 C6.54797973,48.0956518 10.6940076,55.7830698 22.1104389,55.7830698 C37.6694784,55.7830698 42.5353651,55.7051438 42.5353651,55.7051438 L37.2253374,46.1509092 L31.9123175,36.6635291" id="Fill-5" fill="#D9222A" mask="url(#mask-2)"></path>
                    </g>
                    <path d="M61.2127955,14.2246828 C64.1054825,8.96063463 60.9742675,4.63042062 60.9742675,4.63042062 C60.9742675,4.63042062 58.1991346,0.0272527974 49.5843393,0.0272527974 L26.6326401,0.0272527974 L47.5029897,37.5424318 L47.5585607,37.6429265 C47.5585607,37.6429265 58.3171163,19.4908601 61.2127955,14.2246828" id="Fill-7" fill="#D9222A"></path>
                </g>
            </g>
        </g>
    </g>
</svg>